{
	"patcher" : 	{
		"fileversion" : 1,
		"appversion" : 		{
			"major" : 8,
			"minor" : 1,
			"revision" : 8,
			"architecture" : "x64",
			"modernui" : 1
		}
,
		"classnamespace" : "box",
		"rect" : [ 42.0, 85.0, 1452.0, 913.0 ],
		"bglocked" : 0,
		"openinpresentation" : 1,
		"default_fontsize" : 12.0,
		"default_fontface" : 0,
		"default_fontname" : "Book Antiqua",
		"gridonopen" : 1,
		"gridsize" : [ 15.0, 15.0 ],
		"gridsnaponopen" : 1,
		"objectsnaponopen" : 1,
		"statusbarvisible" : 2,
		"toolbarvisible" : 1,
		"lefttoolbarpinned" : 0,
		"toptoolbarpinned" : 0,
		"righttoolbarpinned" : 0,
		"bottomtoolbarpinned" : 0,
		"toolbars_unpinned_last_save" : 0,
		"tallnewobj" : 0,
		"boxanimatetime" : 200,
		"enablehscroll" : 1,
		"enablevscroll" : 1,
		"devicewidth" : 0.0,
		"description" : "",
		"digest" : "",
		"tags" : "",
		"style" : "",
		"subpatcher_template" : "",
		"assistshowspatchername" : 0,
		"boxes" : [ 			{
				"box" : 				{
					"id" : "obj-17",
					"maxclass" : "number",
					"numinlets" : 1,
					"numoutlets" : 2,
					"outlettype" : [ "", "bang" ],
					"parameter_enable" : 0,
					"patching_rect" : [ 778.236841559410095, 544.960224270820618, 50.0, 23.0 ]
				}

			}
, 			{
				"box" : 				{
					"id" : "obj-46",
					"maxclass" : "comment",
					"numinlets" : 1,
					"numoutlets" : 0,
					"patching_rect" : [ 2447.706856966018677, 102.819834351539612, 120.212766170501709, 21.0 ],
					"text" : "(Depth)",
					"textcolor" : [ 1.0, 1.0, 1.0, 1.0 ],
					"textjustification" : 1
				}

			}
, 			{
				"box" : 				{
					"id" : "obj-45",
					"maxclass" : "comment",
					"numinlets" : 1,
					"numoutlets" : 0,
					"patching_rect" : [ 2152.730250251091093, 102.819834351539612, 120.212766170501709, 21.0 ],
					"text" : "(Resonance)",
					"textcolor" : [ 1.0, 1.0, 1.0, 1.0 ],
					"textjustification" : 1
				}

			}
, 			{
				"box" : 				{
					"fontsize" : 16.0,
					"id" : "obj-44",
					"linecount" : 2,
					"maxclass" : "comment",
					"numinlets" : 1,
					"numoutlets" : 0,
					"patching_rect" : [ 765.736841559410095, 1092.659566760063171, 180.0, 46.0 ],
					"text" : "Routes to Input routing section",
					"textcolor" : [ 0.701960784313725, 0.172549019607843, 0.172549019607843, 1.0 ],
					"textjustification" : 1
				}

			}
, 			{
				"box" : 				{
					"fontsize" : 16.0,
					"id" : "obj-43",
					"linecount" : 2,
					"maxclass" : "comment",
					"numinlets" : 1,
					"numoutlets" : 0,
					"patching_rect" : [ 264.453907489776611, 358.251077651977539, 180.0, 46.0 ],
					"text" : "Routes to Input routing section",
					"textcolor" : [ 0.701960784313725, 0.172549019607843, 0.172549019607843, 1.0 ],
					"textjustification" : 1
				}

			}
, 			{
				"box" : 				{
					"fontsize" : 18.0,
					"id" : "obj-41",
					"maxclass" : "comment",
					"numinlets" : 1,
					"numoutlets" : 0,
					"patching_rect" : [ 153.40425443649292, 1147.021268606185913, 217.0, 29.0 ],
					"text" : "GUI Elements",
					"textcolor" : [ 1.0, 1.0, 1.0, 1.0 ],
					"textjustification" : 1
				}

			}
, 			{
				"box" : 				{
					"fontsize" : 18.0,
					"id" : "obj-40",
					"maxclass" : "comment",
					"numinlets" : 1,
					"numoutlets" : 0,
					"patching_rect" : [ 926.409400939941406, 375.251077651977539, 217.0, 29.0 ],
					"text" : "Seperate Midi control ",
					"textcolor" : [ 1.0, 1.0, 1.0, 1.0 ],
					"textjustification" : 1
				}

			}
, 			{
				"box" : 				{
					"fontsize" : 18.0,
					"id" : "obj-33",
					"maxclass" : "comment",
					"numinlets" : 1,
					"numoutlets" : 0,
					"patching_rect" : [ 66.959674477577209, 153.768735647201538, 217.0, 29.0 ],
					"text" : "Audio Processing section",
					"textcolor" : [ 1.0, 1.0, 1.0, 1.0 ],
					"textjustification" : 1
				}

			}
, 			{
				"box" : 				{
					"fontsize" : 18.0,
					"id" : "obj-32",
					"maxclass" : "comment",
					"numinlets" : 1,
					"numoutlets" : 0,
					"patching_rect" : [ 818.980945587158203, 16.428310990333557, 217.0, 29.0 ],
					"text" : "Midi Processing section",
					"textcolor" : [ 1.0, 1.0, 1.0, 1.0 ],
					"textjustification" : 1
				}

			}
, 			{
				"box" : 				{
					"fontsize" : 18.0,
					"id" : "obj-31",
					"maxclass" : "comment",
					"numinlets" : 1,
					"numoutlets" : 0,
					"patching_rect" : [ 1094.909400939941406, 888.675995588302612, 217.0, 29.0 ],
					"text" : "Amp Envelope section",
					"textcolor" : [ 1.0, 1.0, 1.0, 1.0 ],
					"textjustification" : 1
				}

			}
, 			{
				"box" : 				{
					"fontsize" : 18.0,
					"id" : "obj-30",
					"maxclass" : "comment",
					"numinlets" : 1,
					"numoutlets" : 0,
					"patching_rect" : [ 884.098543763160706, 592.824933767318726, 217.0, 29.0 ],
					"text" : "VCO/DCO section",
					"textcolor" : [ 1.0, 1.0, 1.0, 1.0 ],
					"textjustification" : 1
				}

			}
, 			{
				"box" : 				{
					"fontsize" : 18.0,
					"id" : "obj-27",
					"maxclass" : "comment",
					"numinlets" : 1,
					"numoutlets" : 0,
					"patching_rect" : [ 1394.887353599071503, 266.122808337211609, 217.0, 29.0 ],
					"text" : "Filter section",
					"textcolor" : [ 1.0, 1.0, 1.0, 1.0 ],
					"textjustification" : 1
				}

			}
, 			{
				"box" : 				{
					"fontsize" : 18.0,
					"id" : "obj-25",
					"maxclass" : "comment",
					"numinlets" : 1,
					"numoutlets" : 0,
					"patching_rect" : [ 1841.226989269256592, 825.704901218414307, 217.0, 29.0 ],
					"text" : "Limiter and Master Fader",
					"textcolor" : [ 1.0, 1.0, 1.0, 1.0 ],
					"textjustification" : 1
				}

			}
, 			{
				"box" : 				{
					"fontsize" : 18.0,
					"id" : "obj-23",
					"maxclass" : "comment",
					"numinlets" : 1,
					"numoutlets" : 0,
					"patching_rect" : [ 1704.382457494735718, 383.045329809188843, 217.0, 29.0 ],
					"text" : "Dry/Wet signal mixer",
					"textcolor" : [ 1.0, 1.0, 1.0, 1.0 ],
					"textjustification" : 1
				}

			}
, 			{
				"box" : 				{
					"fontsize" : 18.0,
					"id" : "obj-21",
					"maxclass" : "comment",
					"numinlets" : 1,
					"numoutlets" : 0,
					"patching_rect" : [ 1649.440578162670135, 55.279374599456787, 217.0, 29.0 ],
					"text" : "Input routing section",
					"textcolor" : [ 1.0, 1.0, 1.0, 1.0 ],
					"textjustification" : 1
				}

			}
, 			{
				"box" : 				{
					"fontsize" : 18.0,
					"id" : "obj-19",
					"maxclass" : "comment",
					"numinlets" : 1,
					"numoutlets" : 0,
					"patching_rect" : [ 2258.85534942150116, 66.875119090080261, 217.0, 29.0 ],
					"text" : "Chorus section",
					"textcolor" : [ 1.0, 1.0, 1.0, 1.0 ],
					"textjustification" : 1
				}

			}
, 			{
				"box" : 				{
					"id" : "obj-34",
					"maxclass" : "number",
					"numinlets" : 1,
					"numoutlets" : 2,
					"outlettype" : [ "", "bang" ],
					"parameter_enable" : 0,
					"patching_rect" : [ 720.089559435844421, 544.960224270820618, 50.0, 23.0 ]
				}

			}
, 			{
				"box" : 				{
					"id" : "obj-22",
					"maxclass" : "newobj",
					"numinlets" : 2,
					"numoutlets" : 2,
					"outlettype" : [ "signal", "signal" ],
					"patching_rect" : [ 1765.242847204208374, 651.510169386863708, 46.0, 23.0 ],
					"text" : "limi~ 2"
				}

			}
, 			{
				"box" : 				{
					"id" : "obj-15",
					"maxclass" : "newobj",
					"numinlets" : 1,
					"numoutlets" : 1,
					"outlettype" : [ "signal" ],
					"patching_rect" : [ 835.736841559410095, 832.809827446937561, 37.0, 23.0 ],
					"text" : "limi~"
				}

			}
, 			{
				"box" : 				{
					"attr" : "order",
					"fontface" : 0,
					"fontname" : "Arial",
					"fontsize" : 13.0,
					"id" : "obj-14",
					"maxclass" : "attrui",
					"numinlets" : 1,
					"numoutlets" : 1,
					"outlettype" : [ "" ],
					"patching_rect" : [ 1318.920087277889252, 341.4383385181427, 230.0, 23.0 ]
				}

			}
, 			{
				"box" : 				{
					"id" : "obj-7",
					"maxclass" : "newobj",
					"numinlets" : 2,
					"numoutlets" : 1,
					"outlettype" : [ "signal" ],
					"patching_rect" : [ 1152.281747817993164, 779.426028728485107, 57.0, 23.0 ],
					"text" : "cascade~"
				}

			}
, 			{
				"box" : 				{
					"id" : "obj-503",
					"maxclass" : "message",
					"numinlets" : 2,
					"numoutlets" : 1,
					"outlettype" : [ "" ],
					"patching_rect" : [ 1564.475350677967072, 341.4383385181427, 102.0, 23.0 ],
					"text" : "response lowpass"
				}

			}
, 			{
				"box" : 				{
					"attr" : "frequency",
					"displaymode" : 4,
					"fontface" : 0,
					"fontname" : "Arial",
					"fontsize" : 13.0,
					"id" : "obj-5",
					"maxclass" : "attrui",
					"numinlets" : 1,
					"numoutlets" : 1,
					"outlettype" : [ "" ],
					"patching_rect" : [ 1318.920087277889252, 193.81006920337677, 231.0, 23.0 ]
				}

			}
, 			{
				"box" : 				{
					"fontname" : "Arial",
					"fontsize" : 13.0,
					"id" : "obj-3",
					"maxclass" : "newobj",
					"numinlets" : 1,
					"numoutlets" : 1,
					"outlettype" : [ "dictionary" ],
					"patching_rect" : [ 1511.228597939014435, 405.170327067375183, 76.0, 23.0 ],
					"text" : "filterdesign"
				}

			}
, 			{
				"box" : 				{
					"id" : "obj-495",
					"maxclass" : "newobj",
					"numinlets" : 3,
					"numoutlets" : 1,
					"outlettype" : [ "signal" ],
					"patching_rect" : [ 990.856521010398865, 695.445840120315552, 65.0, 23.0 ],
					"text" : "selector~ 2"
				}

			}
, 			{
				"box" : 				{
					"id" : "obj-494",
					"maxclass" : "newobj",
					"numinlets" : 3,
					"numoutlets" : 1,
					"outlettype" : [ "signal" ],
					"patching_rect" : [ 981.481521368026733, 652.478169918060303, 40.0, 23.0 ],
					"text" : "rect~"
				}

			}
, 			{
				"box" : 				{
					"activebgcolor" : [ 0.705882352941177, 0.474509803921569, 0.980392156862745, 1.0 ],
					"hltcolor" : [ 0.874509803921569, 0.333333333333333, 0.945098039215686, 1.0 ],
					"id" : "obj-493",
					"maxclass" : "live.menu",
					"numinlets" : 1,
					"numoutlets" : 3,
					"outlettype" : [ "", "", "float" ],
					"parameter_enable" : 1,
					"patching_rect" : [ 1043.317201435565948, 653.478169918060303, 100.0, 15.0 ],
					"presentation" : 1,
					"presentation_rect" : [ 549.058692961931229, 271.958332419395447, 47.916668653488159, 15.0 ],
					"saved_attribute_attributes" : 					{
						"valueof" : 						{
							"parameter_enum" : [ "Off", "Triangle", "Square" ],
							"parameter_longname" : "live.menu",
							"parameter_mmax" : 2,
							"parameter_shortname" : "live.menu",
							"parameter_type" : 2
						}

					}
,
					"varname" : "live.menu"
				}

			}
, 			{
				"box" : 				{
					"id" : "obj-491",
					"maxclass" : "newobj",
					"numinlets" : 2,
					"numoutlets" : 1,
					"outlettype" : [ "signal" ],
					"patching_rect" : [ 934.078920125961304, 695.445840120315552, 29.5, 23.0 ],
					"text" : "*~"
				}

			}
, 			{
				"box" : 				{
					"activedialcolor" : [ 0.874509803921569, 0.333333333333333, 0.945098039215686, 1.0 ],
					"fontname" : "Book Antiqua",
					"fontsize" : 14.0,
					"id" : "obj-490",
					"maxclass" : "live.dial",
					"numinlets" : 1,
					"numoutlets" : 2,
					"outlettype" : [ "", "float" ],
					"parameter_enable" : 1,
					"patching_rect" : [ 1223.237409710884094, 583.017305374145508, 62.0, 60.0 ],
					"presentation" : 1,
					"presentation_rect" : [ 605.754221707582474, 226.958332419395447, 58.804471731185913, 60.0 ],
					"saved_attribute_attributes" : 					{
						"valueof" : 						{
							"parameter_longname" : "duty cycle[1]",
							"parameter_mmax" : 1.0,
							"parameter_shortname" : "Gain",
							"parameter_type" : 0,
							"parameter_unitstyle" : 1
						}

					}
,
					"textcolor" : [ 1.0, 1.0, 1.0, 1.0 ],
					"varname" : "live.dial[1]"
				}

			}
, 			{
				"box" : 				{
					"id" : "obj-483",
					"maxclass" : "comment",
					"numinlets" : 1,
					"numoutlets" : 0,
					"patching_rect" : [ 1682.940578162670135, 1408.534859597682953, 150.0, 21.0 ],
					"presentation" : 1,
					"presentation_rect" : [ 326.654255509376526, 104.386037468910217, 93.617021679878235, 21.0 ],
					"text" : "Audio Controls",
					"textcolor" : [ 0.945098039215686, 0.945098039215686, 0.945098039215686, 1.0 ]
				}

			}
, 			{
				"box" : 				{
					"activebgcolor" : [ 0.870588235294118, 0.870588235294118, 0.870588235294118, 1.0 ],
					"activebgoncolor" : [ 0.874509803921569, 0.333333333333333, 0.945098039215686, 1.0 ],
					"bgcolor" : [ 0.831372549019608, 0.831372549019608, 0.831372549019608, 1.0 ],
					"id" : "obj-405",
					"maxclass" : "live.button",
					"numinlets" : 1,
					"numoutlets" : 1,
					"outlettype" : [ "" ],
					"parameter_enable" : 1,
					"patching_rect" : [ 364.539457678794861, 60.895981192588806, 15.0, 15.0 ],
					"presentation" : 1,
					"presentation_rect" : [ 471.75, 128.982349514961243, 15.0, 15.0 ],
					"saved_attribute_attributes" : 					{
						"valueof" : 						{
							"parameter_enum" : [ "off", "on" ],
							"parameter_longname" : "live.button[1]",
							"parameter_mmax" : 1,
							"parameter_shortname" : "Play!",
							"parameter_type" : 2
						}

					}
,
					"varname" : "live.button[1]"
				}

			}
, 			{
				"box" : 				{
					"id" : "obj-442",
					"maxclass" : "comment",
					"numinlets" : 1,
					"numoutlets" : 0,
					"patching_rect" : [ 335.816053628921509, 31.928310990333557, 87.058510661125183, 21.0 ],
					"presentation" : 1,
					"presentation_rect" : [ 385.0, 126.482349514961243, 87.058510661125183, 21.0 ],
					"text" : "Have At Thee!",
					"textcolor" : [ 1.0, 1.0, 1.0, 1.0 ],
					"textjustification" : 1
				}

			}
, 			{
				"box" : 				{
					"activebgcolor" : [ 0.870588235294118, 0.870588235294118, 0.870588235294118, 1.0 ],
					"activebgoncolor" : [ 0.874509803921569, 0.333333333333333, 0.945098039215686, 1.0 ],
					"bgcolor" : [ 0.831372549019608, 0.831372549019608, 0.831372549019608, 1.0 ],
					"id" : "obj-310",
					"maxclass" : "live.button",
					"numinlets" : 1,
					"numoutlets" : 1,
					"outlettype" : [ "" ],
					"parameter_enable" : 1,
					"patching_rect" : [ 264.453907489776611, 60.895981192588806, 15.0, 15.0 ],
					"presentation" : 1,
					"presentation_rect" : [ 332.585106790065765, 128.982349514961243, 15.0, 15.0 ],
					"saved_attribute_attributes" : 					{
						"valueof" : 						{
							"parameter_enum" : [ "off", "on" ],
							"parameter_longname" : "live.button",
							"parameter_mmax" : 1,
							"parameter_shortname" : "Open Sesame!",
							"parameter_type" : 2
						}

					}
,
					"varname" : "live.button"
				}

			}
, 			{
				"box" : 				{
					"id" : "obj-440",
					"linecount" : 2,
					"maxclass" : "comment",
					"numinlets" : 1,
					"numoutlets" : 0,
					"patching_rect" : [ 226.209226429462433, 24.928310990333557, 91.489362120628357, 36.0 ],
					"presentation" : 1,
					"presentation_linecount" : 2,
					"presentation_rect" : [ 239.255318939685822, 119.482349514961243, 91.489362120628357, 36.0 ],
					"text" : "Load Thy Mixtape",
					"textcolor" : [ 1.0, 1.0, 1.0, 1.0 ],
					"textjustification" : 1
				}

			}
, 			{
				"box" : 				{
					"angle" : 270.0,
					"bgcolor" : [ 0.482352941176471, 0.482352941176471, 0.482352941176471, 1.0 ],
					"id" : "obj-481",
					"maxclass" : "panel",
					"mode" : 0,
					"numinlets" : 1,
					"numoutlets" : 0,
					"patching_rect" : [ 83.791351318359375, 1365.201370716094971, 128.0, 128.0 ],
					"presentation" : 1,
					"presentation_rect" : [ 225.925532698631287, 104.386037468910217, 295.074467301368713, 56.666594386100769 ],
					"proportion" : 0.5
				}

			}
, 			{
				"box" : 				{
					"fontsize" : 20.0,
					"id" : "obj-480",
					"maxclass" : "comment",
					"numinlets" : 1,
					"numoutlets" : 0,
					"patching_rect" : [ 1682.940578162670135, 1371.692757189273834, 242.0, 31.0 ],
					"presentation" : 1,
					"presentation_rect" : [ 520.383161038160324, 168.0, 172.851064324378967, 31.0 ],
					"text" : "Manipulate!",
					"textcolor" : [ 1.0, 1.0, 1.0, 1.0 ],
					"textjustification" : 1
				}

			}
, 			{
				"box" : 				{
					"activedialcolor" : [ 0.874509803921569, 0.333333333333333, 0.945098039215686, 1.0 ],
					"fontname" : "Book Antiqua",
					"fontsize" : 14.0,
					"id" : "obj-367",
					"maxclass" : "live.dial",
					"numinlets" : 1,
					"numoutlets" : 2,
					"outlettype" : [ "", "float" ],
					"parameter_enable" : 1,
					"patching_rect" : [ 1115.545365333557129, 583.017305374145508, 62.0, 60.0 ],
					"presentation" : 1,
					"presentation_rect" : [ 549.058692961931229, 203.0, 75.0, 60.0 ],
					"saved_attribute_attributes" : 					{
						"valueof" : 						{
							"parameter_longname" : "duty cycle",
							"parameter_mmax" : 1.0,
							"parameter_shortname" : "Duty cycle",
							"parameter_type" : 0,
							"parameter_unitstyle" : 1
						}

					}
,
					"textcolor" : [ 1.0, 1.0, 1.0, 1.0 ],
					"varname" : "live.dial"
				}

			}
, 			{
				"box" : 				{
					"angle" : 270.0,
					"bgcolor" : [ 0.450980392156863, 0.235294117647059, 0.556862745098039, 1.0 ],
					"id" : "obj-478",
					"maxclass" : "panel",
					"mode" : 0,
					"numinlets" : 1,
					"numoutlets" : 0,
					"patching_rect" : [ 235.850279688835144, 1365.354588508605957, 128.0, 128.0 ],
					"presentation" : 1,
					"presentation_rect" : [ 542.808693200349808, 168.0, 128.0, 130.127659559249878 ],
					"proportion" : 0.5
				}

			}
, 			{
				"box" : 				{
					"id" : "obj-432",
					"maxclass" : "comment",
					"numinlets" : 1,
					"numoutlets" : 0,
					"patching_rect" : [ 834.576689898967743, 55.279374599456787, 46.80851137638092, 21.0 ],
					"presentation" : 1,
					"presentation_rect" : [ 697.877840846776962, 80.414334416389465, 46.80851137638092, 21.0 ],
					"text" : "Tempo",
					"textcolor" : [ 1.0, 1.0, 1.0, 1.0 ],
					"textjustification" : 1
				}

			}
, 			{
				"box" : 				{
					"bgcolor" : [ 0.352941176470588, 0.352941176470588, 0.352941176470588, 1.0 ],
					"fontname" : "Arial",
					"fontsize" : 12.0,
					"id" : "obj-13",
					"maxclass" : "number",
					"maximum" : 250.0,
					"minimum" : 80.0,
					"numinlets" : 1,
					"numoutlets" : 2,
					"outlettype" : [ "", "bang" ],
					"parameter_enable" : 0,
					"patching_rect" : [ 832.980945587158203, 79.251077651977539, 50.0, 22.0 ],
					"presentation" : 1,
					"presentation_rect" : [ 696.282096534967422, 104.386037468910217, 50.0, 22.0 ]
				}

			}
, 			{
				"box" : 				{
					"id" : "obj-448",
					"maxclass" : "comment",
					"numinlets" : 1,
					"numoutlets" : 0,
					"patching_rect" : [ 674.990321546792984, 24.428310990333557, 111.481248080730438, 21.0 ],
					"presentation" : 1,
					"presentation_rect" : [ 557.074467658996582, 116.982349514961243, 96.587631165981293, 21.0 ],
					"text" : "Stop Thy Midi!",
					"textcolor" : [ 1.0, 1.0, 1.0, 1.0 ]
				}

			}
, 			{
				"box" : 				{
					"activebgcolor" : [ 1.0, 1.0, 1.0, 1.0 ],
					"id" : "obj-438",
					"maxclass" : "live.button",
					"numinlets" : 1,
					"numoutlets" : 1,
					"outlettype" : [ "" ],
					"parameter_enable" : 1,
					"patching_rect" : [ 723.230945587158203, 48.896395921707153, 15.0, 15.0 ],
					"presentation" : 1,
					"presentation_rect" : [ 660.744680166244507, 119.482349514961243, 15.0, 15.0 ],
					"saved_attribute_attributes" : 					{
						"valueof" : 						{
							"parameter_enum" : [ "off", "on" ],
							"parameter_longname" : "live.button[4]",
							"parameter_mmax" : 1,
							"parameter_shortname" : "live.button[2]",
							"parameter_type" : 2
						}

					}
,
					"varname" : "live.button[4]"
				}

			}
, 			{
				"box" : 				{
					"activebgcolor" : [ 1.0, 1.0, 1.0, 1.0 ],
					"id" : "obj-437",
					"maxclass" : "live.button",
					"numinlets" : 1,
					"numoutlets" : 1,
					"outlettype" : [ "" ],
					"parameter_enable" : 1,
					"patching_rect" : [ 620.789456248283386, 48.896395921707153, 15.0, 15.0 ],
					"presentation" : 1,
					"presentation_rect" : [ 660.744680166244507, 96.982349514961243, 15.0, 15.0 ],
					"saved_attribute_attributes" : 					{
						"valueof" : 						{
							"parameter_enum" : [ "off", "on" ],
							"parameter_longname" : "live.button[3]",
							"parameter_mmax" : 1,
							"parameter_shortname" : "live.button[2]",
							"parameter_type" : 2
						}

					}
,
					"varname" : "live.button[3]"
				}

			}
, 			{
				"box" : 				{
					"id" : "obj-446",
					"linecount" : 2,
					"maxclass" : "comment",
					"numinlets" : 1,
					"numoutlets" : 0,
					"patching_rect" : [ 586.800094306468964, 24.428310990333557, 82.978723883628845, 36.0 ],
					"presentation" : 1,
					"presentation_rect" : [ 557.074467658996582, 93.982349514961243, 96.587631165981293, 21.0 ],
					"text" : "Play Thy Midi",
					"textcolor" : [ 1.0, 1.0, 1.0, 1.0 ]
				}

			}
, 			{
				"box" : 				{
					"id" : "obj-444",
					"linecount" : 2,
					"maxclass" : "comment",
					"numinlets" : 1,
					"numoutlets" : 0,
					"patching_rect" : [ 496.368799448013306, 24.428310990333557, 84.042553663253784, 36.0 ],
					"presentation" : 1,
					"presentation_rect" : [ 557.074467658996582, 70.982349514961243, 96.808511018753052, 21.0 ],
					"text" : "Load Thy Midi",
					"textcolor" : [ 1.0, 1.0, 1.0, 1.0 ]
				}

			}
, 			{
				"box" : 				{
					"activebgcolor" : [ 1.0, 1.0, 1.0, 1.0 ],
					"id" : "obj-436",
					"maxclass" : "live.button",
					"numinlets" : 1,
					"numoutlets" : 1,
					"outlettype" : [ "" ],
					"parameter_enable" : 1,
					"patching_rect" : [ 530.023498892784119, 48.896395921707153, 15.0, 15.0 ],
					"presentation" : 1,
					"presentation_rect" : [ 660.744680166244507, 74.078094005584717, 15.0, 15.0 ],
					"saved_attribute_attributes" : 					{
						"valueof" : 						{
							"parameter_enum" : [ "off", "on" ],
							"parameter_longname" : "live.button[2]",
							"parameter_mmax" : 1,
							"parameter_shortname" : "live.button[2]",
							"parameter_type" : 2
						}

					}
,
					"varname" : "live.button[2]"
				}

			}
, 			{
				"box" : 				{
					"fontsize" : 20.0,
					"id" : "obj-476",
					"maxclass" : "comment",
					"numinlets" : 1,
					"numoutlets" : 0,
					"patching_rect" : [ 1666.51062023639679, 1371.692757189273834, 239.0, 31.0 ],
					"presentation" : 1,
					"presentation_rect" : [ 557.074467658996582, 37.499999642372131, 131.553192257881165, 31.0 ],
					"text" : "Midi Control!",
					"textcolor" : [ 1.0, 1.0, 1.0, 1.0 ],
					"textjustification" : 1
				}

			}
, 			{
				"box" : 				{
					"angle" : 270.0,
					"bgcolor" : [ 0.905882352941176, 0.588235294117647, 0.305882352941176, 1.0 ],
					"id" : "obj-474",
					"maxclass" : "panel",
					"mode" : 0,
					"numinlets" : 1,
					"numoutlets" : 0,
					"patching_rect" : [ 1307.056727766990662, 1369.210507392883301, 128.0, 128.0 ],
					"presentation" : 1,
					"presentation_rect" : [ 542.808693200349808, 34.910414099693298, 224.808509945869446, 126.142217755317688 ],
					"proportion" : 0.5
				}

			}
, 			{
				"box" : 				{
					"fontsize" : 20.0,
					"id" : "obj-473",
					"maxclass" : "comment",
					"numinlets" : 1,
					"numoutlets" : 0,
					"patching_rect" : [ 1675.51062023639679, 1362.336790680885315, 230.0, 31.0 ],
					"presentation" : 1,
					"presentation_rect" : [ 688.415074855089188, 217.563829779624939, 65.73404335975647, 31.0 ],
					"text" : "Filter!",
					"textcolor" : [ 1.0, 1.0, 1.0, 1.0 ]
				}

			}
, 			{
				"box" : 				{
					"activedialcolor" : [ 0.874509803921569, 0.333333333333333, 0.945098039215686, 1.0 ],
					"fontname" : "Book Antiqua",
					"id" : "obj-370",
					"maxclass" : "live.dial",
					"numinlets" : 1,
					"numoutlets" : 2,
					"outlettype" : [ "", "float" ],
					"parameter_enable" : 1,
					"patching_rect" : [ 1318.920087277889252, 249.687256097793579, 47.0, 49.0 ],
					"presentation" : 1,
					"presentation_rect" : [ 754.114361763000488, 208.563829779624939, 55.510638236999512, 49.0 ],
					"saved_attribute_attributes" : 					{
						"valueof" : 						{
							"parameter_longname" : "magic resonance",
							"parameter_mmax" : 7.0,
							"parameter_shortname" : "Spell power",
							"parameter_type" : 0,
							"parameter_unitstyle" : 1
						}

					}
,
					"textcolor" : [ 1.0, 1.0, 1.0, 1.0 ],
					"varname" : "live.dial[5]"
				}

			}
, 			{
				"box" : 				{
					"fontname" : "Book Antiqua",
					"id" : "obj-371",
					"maxclass" : "live.slider",
					"numinlets" : 1,
					"numoutlets" : 2,
					"outlettype" : [ "", "float" ],
					"parameter_enable" : 1,
					"patching_rect" : [ 1318.920087277889252, 74.058986783027649, 52.0, 95.0 ],
					"presentation" : 1,
					"presentation_rect" : [ 811.625, 185.572788596153259, 52.0, 95.0 ],
					"saved_attribute_attributes" : 					{
						"valueof" : 						{
							"parameter_initial" : [ 20.0 ],
							"parameter_initial_enable" : 1,
							"parameter_longname" : "magicutoff",
							"parameter_mmax" : 20000.0,
							"parameter_mmin" : 20.0,
							"parameter_shortname" : "Magicutoff",
							"parameter_type" : 0,
							"parameter_unitstyle" : 0
						}

					}
,
					"slidercolor" : [ 0.874509803921569, 0.333333333333333, 0.945098039215686, 1.0 ],
					"textcolor" : [ 1.0, 1.0, 1.0, 1.0 ],
					"trioncolor" : [ 1.0, 1.0, 1.0, 1.0 ],
					"varname" : "live.slider"
				}

			}
, 			{
				"box" : 				{
					"angle" : 270.0,
					"bgcolor" : [ 0.388235294117647, 0.666666666666667, 0.349019607843137, 1.0 ],
					"id" : "obj-471",
					"maxclass" : "panel",
					"mode" : 0,
					"numinlets" : 1,
					"numoutlets" : 0,
					"patching_rect" : [ 1457.056724190711975, 1369.210507392883301, 128.0, 128.0 ],
					"presentation" : 1,
					"presentation_rect" : [ 675.334547758102417, 168.0, 194.154808640480042, 130.127659559249878 ],
					"proportion" : 0.5
				}

			}
, 			{
				"box" : 				{
					"fontface" : 1,
					"fontsize" : 14.0,
					"id" : "obj-470",
					"maxclass" : "comment",
					"numinlets" : 1,
					"numoutlets" : 0,
					"patching_rect" : [ 1655.940578162670135, 1408.534859597682953, 177.0, 23.0 ],
					"presentation" : 1,
					"presentation_rect" : [ 284.962766349315643, 37.499999642372131, 177.0, 23.0 ],
					"text" : "Choose Your Fighter:",
					"textcolor" : [ 1.0, 0.996078431372549, 1.0, 1.0 ],
					"textjustification" : 1,
					"underline" : 1
				}

			}
, 			{
				"box" : 				{
					"id" : "obj-457",
					"maxclass" : "comment",
					"numinlets" : 1,
					"numoutlets" : 0,
					"patching_rect" : [ 1748.776074409484863, 130.552502274513245, 120.212766170501709, 21.0 ],
					"presentation" : 1,
					"presentation_rect" : [ 385.0, 70.982349514961243, 83.819148898124695, 21.0 ],
					"text" : "Pre Recorded",
					"textcolor" : [ 1.0, 1.0, 1.0, 1.0 ],
					"textjustification" : 1
				}

			}
, 			{
				"box" : 				{
					"activebgcolor" : [ 0.870588235294118, 0.870588235294118, 0.870588235294118, 1.0 ],
					"activebgoncolor" : [ 0.874509803921569, 0.333333333333333, 0.945098039215686, 1.0 ],
					"bgcolor" : [ 0.831372549019608, 0.831372549019608, 0.831372549019608, 1.0 ],
					"id" : "obj-455",
					"maxclass" : "live.button",
					"numinlets" : 1,
					"numoutlets" : 1,
					"outlettype" : [ "" ],
					"parameter_enable" : 1,
					"patching_rect" : [ 1801.382457494735718, 151.785170197486877, 15.0, 15.0 ],
					"presentation" : 1,
					"presentation_rect" : [ 471.75, 74.078094005584717, 15.0, 15.0 ],
					"saved_attribute_attributes" : 					{
						"valueof" : 						{
							"parameter_enum" : [ "off", "on" ],
							"parameter_longname" : "live.button[6]",
							"parameter_mmax" : 1,
							"parameter_shortname" : "live.button[6]",
							"parameter_type" : 2
						}

					}
,
					"varname" : "live.button[6]"
				}

			}
, 			{
				"box" : 				{
					"activebgcolor" : [ 0.870588235294118, 0.870588235294118, 0.870588235294118, 1.0 ],
					"activebgoncolor" : [ 0.874509803921569, 0.333333333333333, 0.945098039215686, 1.0 ],
					"bgcolor" : [ 0.831372549019608, 0.831372549019608, 0.831372549019608, 1.0 ],
					"id" : "obj-453",
					"maxclass" : "live.button",
					"numinlets" : 1,
					"numoutlets" : 1,
					"outlettype" : [ "" ],
					"parameter_enable" : 1,
					"patching_rect" : [ 1689.096046388149261, 151.785170197486877, 15.0, 15.0 ],
					"presentation" : 1,
					"presentation_rect" : [ 332.585106790065765, 74.078094005584717, 15.0, 15.0 ],
					"saved_attribute_attributes" : 					{
						"valueof" : 						{
							"parameter_enum" : [ "off", "on" ],
							"parameter_longname" : "live.button[5]",
							"parameter_mmax" : 1,
							"parameter_shortname" : "live.button[5]",
							"parameter_type" : 2
						}

					}
,
					"varname" : "live.button[5]"
				}

			}
, 			{
				"box" : 				{
					"id" : "obj-451",
					"maxclass" : "comment",
					"numinlets" : 1,
					"numoutlets" : 0,
					"patching_rect" : [ 1660.798173785209656, 130.552502274513245, 78.723404765129089, 21.0 ],
					"presentation" : 1,
					"presentation_rect" : [ 247.138297617435455, 70.982349514961243, 78.723404765129089, 21.0 ],
					"text" : "Wizard Bass!",
					"textcolor" : [ 1.0, 1.0, 1.0, 1.0 ],
					"textjustification" : 1
				}

			}
, 			{
				"box" : 				{
					"angle" : 270.0,
					"grad1" : [ 0.27843137254902, 0.27843137254902, 0.27843137254902, 1.0 ],
					"grad2" : [ 0.2, 0.2, 0.2, 1.0 ],
					"id" : "obj-468",
					"maxclass" : "panel",
					"mode" : 1,
					"numinlets" : 1,
					"numoutlets" : 0,
					"patching_rect" : [ 385.436486303806305, 1365.354588508605957, 128.0, 128.0 ],
					"presentation" : 1,
					"presentation_rect" : [ 225.925532698631287, 35.015638589859009, 295.074467301368713, 61.797457695007324 ],
					"proportion" : 0.5
				}

			}
, 			{
				"box" : 				{
					"autofit" : 1,
					"id" : "obj-465",
					"maxclass" : "fpic",
					"numinlets" : 1,
					"numoutlets" : 1,
					"outlettype" : [ "jit_matrix" ],
					"patching_rect" : [ 1452.497101068496704, 1236.79865985566903, 100.0, 50.0 ],
					"pic" : "C:/Users/owain/Music/Samples/Ident sounds/Chorus Patch/media/cooltext381258447207454.png",
					"presentation" : 1,
					"presentation_rect" : [ 149.045585155487061, 324.0, 296.808509230613708, 51.063829779624939 ]
				}

			}
, 			{
				"box" : 				{
					"angle" : 270.0,
					"grad1" : [ 0.850980392156863, 0.850980392156863, 0.850980392156863, 1.0 ],
					"grad2" : [ 0.2, 0.2, 0.2, 1.0 ],
					"id" : "obj-466",
					"maxclass" : "panel",
					"mode" : 1,
					"numinlets" : 1,
					"numoutlets" : 0,
					"patching_rect" : [ 1158.510634183883667, 1369.210507392883301, 128.0, 128.0 ],
					"presentation" : 1,
					"presentation_rect" : [ 144.790266036987305, 324.0, 305.31914746761322, 52.0 ],
					"proportion" : 0.5
				}

			}
, 			{
				"box" : 				{
					"activedialcolor" : [ 0.874509803921569, 0.333333333333333, 0.945098039215686, 1.0 ],
					"fontname" : "Book Antiqua",
					"fontsize" : 10.0,
					"id" : "obj-275",
					"maxclass" : "live.dial",
					"numinlets" : 1,
					"numoutlets" : 2,
					"outlettype" : [ "", "float" ],
					"parameter_enable" : 1,
					"patching_rect" : [ 1783.882457494735718, 424.228343486785889, 58.0, 50.0 ],
					"presentation" : 1,
					"presentation_rect" : [ 1070.919575676321983, 74.078094005584717, 77.0, 50.0 ],
					"saved_attribute_attributes" : 					{
						"valueof" : 						{
							"parameter_initial" : [ 0.5 ],
							"parameter_initial_enable" : 1,
							"parameter_longname" : "live.dial[6]",
							"parameter_mmax" : 100.0,
							"parameter_shortname" : "Magic Mixer",
							"parameter_type" : 0,
							"parameter_unitstyle" : 1
						}

					}
,
					"textcolor" : [ 1.0, 1.0, 1.0, 1.0 ],
					"varname" : "live.dial[6]"
				}

			}
, 			{
				"box" : 				{
					"activedialcolor" : [ 0.874509803921569, 0.333333333333333, 0.945098039215686, 1.0 ],
					"fontface" : 1,
					"fontname" : "Book Antiqua",
					"fontsize" : 10.0,
					"id" : "obj-272",
					"maxclass" : "live.dial",
					"numinlets" : 1,
					"numoutlets" : 2,
					"outlettype" : [ "", "float" ],
					"parameter_enable" : 1,
					"patching_rect" : [ 2160.336633336341947, 125.819834351539612, 105.0, 50.0 ],
					"presentation" : 1,
					"presentation_rect" : [ 758.625, 74.078094005584717, 105.0, 50.0 ],
					"saved_attribute_attributes" : 					{
						"valueof" : 						{
							"parameter_longname" : "live.dial[3]",
							"parameter_mmax" : 1.0,
							"parameter_shortname" : "FORCE KNOB",
							"parameter_type" : 0,
							"parameter_unitstyle" : 1
						}

					}
,
					"textcolor" : [ 1.0, 1.0, 1.0, 1.0 ],
					"varname" : "live.dial[3]"
				}

			}
, 			{
				"box" : 				{
					"fontsize" : 17.0,
					"id" : "obj-464",
					"maxclass" : "comment",
					"numinlets" : 1,
					"numoutlets" : 0,
					"patching_rect" : [ 1682.940578162670135, 1403.534859597682953, 205.0, 28.0 ],
					"presentation" : 1,
					"presentation_rect" : [ 1047.320450395345688, 185.572788596153259, 83.585106253623962, 28.0 ],
					"text" : "Amplify!",
					"textcolor" : [ 1.0, 1.0, 1.0, 1.0 ]
				}

			}
, 			{
				"box" : 				{
					"activedialcolor" : [ 0.874509803921569, 0.333333333333333, 0.945098039215686, 1.0 ],
					"fontname" : "Book Antiqua",
					"fontsize" : 9.0,
					"id" : "obj-188",
					"maxclass" : "live.dial",
					"numinlets" : 1,
					"numoutlets" : 2,
					"outlettype" : [ "", "float" ],
					"parameter_enable" : 1,
					"patching_rect" : [ 942.598543763160706, 1016.153148770332336, 100.0, 48.0 ],
					"presentation" : 1,
					"presentation_rect" : [ 1030.306431367993355, 220.0, 117.613144308328629, 48.0 ],
					"saved_attribute_attributes" : 					{
						"valueof" : 						{
							"parameter_initial" : [ 0.5 ],
							"parameter_initial_enable" : 1,
							"parameter_longname" : "COMMAND THY VOLUME",
							"parameter_mmax" : 1.0,
							"parameter_shortname" : "COMMAND THY VOLUME",
							"parameter_steps" : 128,
							"parameter_type" : 0,
							"parameter_unitstyle" : 1
						}

					}
,
					"textcolor" : [ 1.0, 1.0, 1.0, 1.0 ],
					"varname" : "live.dial[11]"
				}

			}
, 			{
				"box" : 				{
					"fontname" : "Book Antiqua",
					"id" : "obj-388",
					"maxclass" : "live.slider",
					"numinlets" : 1,
					"numoutlets" : 2,
					"outlettype" : [ "", "float" ],
					"parameter_enable" : 1,
					"patching_rect" : [ 1058.909400939941406, 848.973575472831726, 34.0, 95.0 ],
					"presentation" : 1,
					"presentation_rect" : [ 997.249900341033936, 185.572788596153259, 34.0, 95.0 ],
					"saved_attribute_attributes" : 					{
						"valueof" : 						{
							"parameter_enum" : [ "0", "1000" ],
							"parameter_initial" : [ 147.215042652111123 ],
							"parameter_initial_enable" : 1,
							"parameter_longname" : "live.slider[4]",
							"parameter_mmax" : 255.0,
							"parameter_shortname" : "Retreat!",
							"parameter_type" : 0,
							"parameter_unitstyle" : 0
						}

					}
,
					"shownumber" : 0,
					"slidercolor" : [ 0.874509803921569, 0.333333333333333, 0.945098039215686, 1.0 ],
					"textcolor" : [ 1.0, 1.0, 1.0, 1.0 ],
					"trioncolor" : [ 1.0, 1.0, 1.0, 1.0 ],
					"varname" : "live.slider[4]"
				}

			}
, 			{
				"box" : 				{
					"fontname" : "Book Antiqua",
					"id" : "obj-387",
					"maxclass" : "live.slider",
					"numinlets" : 1,
					"numoutlets" : 2,
					"outlettype" : [ "", "float" ],
					"parameter_enable" : 1,
					"patching_rect" : [ 1017.909400939941406, 848.973575472831726, 34.0, 95.0 ],
					"presentation" : 1,
					"presentation_rect" : [ 956.249900341033936, 185.572788596153259, 34.0, 95.0 ],
					"saved_attribute_attributes" : 					{
						"valueof" : 						{
							"parameter_enum" : [ "0", "1" ],
							"parameter_initial" : [ 1.0 ],
							"parameter_initial_enable" : 1,
							"parameter_longname" : "live.slider[3]",
							"parameter_mmax" : 1.0,
							"parameter_shortname" : "Hold!",
							"parameter_type" : 0,
							"parameter_unitstyle" : 1
						}

					}
,
					"shownumber" : 0,
					"slidercolor" : [ 0.874509803921569, 0.333333333333333, 0.945098039215686, 1.0 ],
					"textcolor" : [ 1.0, 1.0, 1.0, 1.0 ],
					"trioncolor" : [ 1.0, 1.0, 1.0, 1.0 ],
					"varname" : "live.slider[3]"
				}

			}
, 			{
				"box" : 				{
					"fontname" : "Book Antiqua",
					"id" : "obj-386",
					"maxclass" : "live.slider",
					"numinlets" : 1,
					"numoutlets" : 2,
					"outlettype" : [ "", "float" ],
					"parameter_enable" : 1,
					"patching_rect" : [ 976.909400939941406, 848.973575472831726, 34.0, 95.0 ],
					"presentation" : 1,
					"presentation_rect" : [ 915.249900341033936, 185.572788596153259, 34.0, 95.0 ],
					"saved_attribute_attributes" : 					{
						"valueof" : 						{
							"parameter_enum" : [ "0", "1000" ],
							"parameter_initial" : [ 140.796775976757147 ],
							"parameter_initial_enable" : 1,
							"parameter_longname" : "live.slider[2]",
							"parameter_mmax" : 255.0,
							"parameter_shortname" : "Decay!",
							"parameter_type" : 0,
							"parameter_unitstyle" : 0
						}

					}
,
					"shownumber" : 0,
					"slidercolor" : [ 0.874509803921569, 0.333333333333333, 0.945098039215686, 1.0 ],
					"textcolor" : [ 1.0, 1.0, 1.0, 1.0 ],
					"trioncolor" : [ 1.0, 1.0, 1.0, 1.0 ],
					"varname" : "live.slider[2]"
				}

			}
, 			{
				"box" : 				{
					"fontname" : "Book Antiqua",
					"id" : "obj-385",
					"maxclass" : "live.slider",
					"numinlets" : 1,
					"numoutlets" : 2,
					"outlettype" : [ "", "float" ],
					"parameter_enable" : 1,
					"patching_rect" : [ 935.909400939941406, 848.973575472831726, 33.0, 95.0 ],
					"presentation" : 1,
					"presentation_rect" : [ 874.249900341033936, 185.572788596153259, 33.0, 95.0 ],
					"saved_attribute_attributes" : 					{
						"valueof" : 						{
							"parameter_enum" : [ "0", "1000" ],
							"parameter_longname" : "live.slider[1]",
							"parameter_mmax" : 255.0,
							"parameter_shortname" : "Attack!",
							"parameter_type" : 0,
							"parameter_unitstyle" : 0
						}

					}
,
					"shownumber" : 0,
					"slidercolor" : [ 0.874509803921569, 0.333333333333333, 0.945098039215686, 1.0 ],
					"textcolor" : [ 1.0, 1.0, 1.0, 1.0 ],
					"trioncolor" : [ 1.0, 1.0, 1.0, 1.0 ],
					"varname" : "live.slider[1]"
				}

			}
, 			{
				"box" : 				{
					"angle" : 270.0,
					"bgcolor" : [ 0.647058823529412, 0.27843137254902, 0.27843137254902, 1.0 ],
					"bordercolor" : [ 0.850980392156863, 0.427450980392157, 0.427450980392157, 1.0 ],
					"id" : "obj-462",
					"maxclass" : "panel",
					"mode" : 0,
					"numinlets" : 1,
					"numoutlets" : 0,
					"patching_rect" : [ 1002.64001263618502, 1369.210507392883301, 128.0, 128.0 ],
					"presentation" : 1,
					"presentation_rect" : [ 874.249900341033936, 168.0, 277.683694362640381, 130.145577192306519 ],
					"proportion" : 0.5
				}

			}
, 			{
				"box" : 				{
					"bgcolor" : [ 1.0, 1.0, 1.0, 0.0 ],
					"fontsize" : 20.0,
					"id" : "obj-461",
					"maxclass" : "comment",
					"numinlets" : 1,
					"numoutlets" : 0,
					"patching_rect" : [ 1661.374520063400269, 1408.534859597682953, 235.0, 31.0 ],
					"presentation" : 1,
					"presentation_rect" : [ 915.249900341033936, 34.910414099693298, 115.234042286872864, 31.0 ],
					"text" : "Choruspell!",
					"textcolor" : [ 0.988235294117647, 0.952941176470588, 1.0, 1.0 ],
					"textjustification" : 1
				}

			}
, 			{
				"box" : 				{
					"activedialcolor" : [ 0.874509803921569, 0.333333333333333, 0.945098039215686, 1.0 ],
					"fontname" : "Book Antiqua",
					"fontsize" : 10.0,
					"id" : "obj-413",
					"maxclass" : "live.dial",
					"numinlets" : 1,
					"numoutlets" : 2,
					"outlettype" : [ "", "float" ],
					"parameter_enable" : 1,
					"patching_rect" : [ 2314.887264490127563, 130.552502274513245, 56.0, 50.0 ],
					"presentation" : 1,
					"presentation_rect" : [ 862.415074855089188, 74.078094005584717, 56.0, 50.0 ],
					"saved_attribute_attributes" : 					{
						"valueof" : 						{
							"parameter_longname" : "live.dial[5]",
							"parameter_mmax" : 20.0,
							"parameter_shortname" : "Delay Time",
							"parameter_type" : 0,
							"parameter_unitstyle" : 2
						}

					}
,
					"textcolor" : [ 1.0, 1.0, 1.0, 1.0 ],
					"varname" : "live.dial[8]"
				}

			}
, 			{
				"box" : 				{
					"activedialcolor" : [ 0.874509803921569, 0.333333333333333, 0.945098039215686, 1.0 ],
					"fontface" : 1,
					"fontname" : "Book Antiqua",
					"fontsize" : 10.0,
					"id" : "obj-410",
					"maxclass" : "live.dial",
					"numinlets" : 1,
					"numoutlets" : 2,
					"outlettype" : [ "", "float" ],
					"parameter_enable" : 1,
					"patching_rect" : [ 2473.313240051269531, 130.552502274513245, 69.0, 50.0 ],
					"presentation" : 1,
					"presentation_rect" : [ 928.058411002159119, 74.078094005584717, 90.382978677749634, 50.0 ],
					"saved_attribute_attributes" : 					{
						"valueof" : 						{
							"parameter_longname" : "live.dial[2]",
							"parameter_mmax" : 100.0,
							"parameter_shortname" : "INTO THE ABYSS",
							"parameter_type" : 0,
							"parameter_unitstyle" : 1
						}

					}
,
					"textcolor" : [ 1.0, 1.0, 1.0, 1.0 ],
					"varname" : "live.dial[2]"
				}

			}
, 			{
				"box" : 				{
					"activedialcolor" : [ 0.874509803921569, 0.333333333333333, 0.945098039215686, 1.0 ],
					"fontname" : "Book Antiqua",
					"fontsize" : 10.0,
					"id" : "obj-412",
					"maxclass" : "live.dial",
					"numinlets" : 1,
					"numoutlets" : 2,
					"outlettype" : [ "", "float" ],
					"parameter_enable" : 1,
					"patching_rect" : [ 2403.078753113746643, 130.552502274513245, 38.0, 50.0 ],
					"presentation" : 1,
					"presentation_rect" : [ 1027.531277477741241, 74.078094005584717, 38.0, 50.0 ],
					"saved_attribute_attributes" : 					{
						"valueof" : 						{
							"parameter_longname" : "live.dial[7]",
							"parameter_mmax" : 1.0,
							"parameter_shortname" : "Rate",
							"parameter_type" : 0,
							"parameter_unitstyle" : 1
						}

					}
,
					"textcolor" : [ 1.0, 1.0, 1.0, 1.0 ],
					"varname" : "live.dial[7]"
				}

			}
, 			{
				"box" : 				{
					"angle" : 270.0,
					"bgcolor" : [ 0.258823529411765, 0.56078431372549, 0.592156862745098, 1.0 ],
					"bordercolor" : [ 0.333333333333333, 0.756862745098039, 0.945098039215686, 1.0 ],
					"id" : "obj-459",
					"maxclass" : "panel",
					"mode" : 0,
					"numinlets" : 1,
					"numoutlets" : 0,
					"patching_rect" : [ 844.736841559410095, 1369.210507392883301, 128.0, 128.0 ],
					"presentation" : 1,
					"presentation_rect" : [ 771.618322372436523, 34.910414099693298, 380.315272331237793, 126.142217755317688 ],
					"proportion" : 0.5
				}

			}
, 			{
				"box" : 				{
					"id" : "obj-434",
					"linecount" : 2,
					"maxclass" : "comment",
					"numinlets" : 1,
					"numoutlets" : 0,
					"patching_rect" : [ 889.483292639255524, 158.251077651977539, 150.0, 36.0 ],
					"text" : "Factor (DO NOT CHANGE THIS)",
					"textcolor" : [ 1.0, 1.0, 1.0, 1.0 ]
				}

			}
, 			{
				"box" : 				{
					"id" : "obj-409",
					"maxclass" : "message",
					"numinlets" : 2,
					"numoutlets" : 1,
					"outlettype" : [ "" ],
					"patching_rect" : [ 1760.882457494735718, 184.090054154396057, 96.0, 23.0 ],
					"text" : "set audioStream"
				}

			}
, 			{
				"box" : 				{
					"id" : "obj-407",
					"maxclass" : "message",
					"numinlets" : 2,
					"numoutlets" : 1,
					"outlettype" : [ "" ],
					"patching_rect" : [ 1668.096046388149261, 184.090054154396057, 57.0, 23.0 ],
					"text" : "set synth"
				}

			}
, 			{
				"box" : 				{
					"id" : "obj-404",
					"maxclass" : "newobj",
					"numinlets" : 1,
					"numoutlets" : 0,
					"patching_rect" : [ 298.108606934547424, 326.631543874740601, 113.0, 23.0 ],
					"text" : "send~ audioStream"
				}

			}
, 			{
				"box" : 				{
					"id" : "obj-403",
					"maxclass" : "newobj",
					"numinlets" : 1,
					"numoutlets" : 1,
					"outlettype" : [ "signal" ],
					"patching_rect" : [ 1714.940578162670135, 263.848991751670837, 86.0, 23.0 ],
					"text" : "receive~ synth"
				}

			}
, 			{
				"box" : 				{
					"id" : "obj-402",
					"maxclass" : "newobj",
					"numinlets" : 1,
					"numoutlets" : 0,
					"patching_rect" : [ 818.736841559410095, 1065.590595722198486, 74.0, 23.0 ],
					"text" : "send~ synth"
				}

			}
, 			{
				"box" : 				{
					"fontname" : "Arial",
					"fontsize" : 12.0,
					"id" : "obj-65",
					"maxclass" : "newobj",
					"numinlets" : 2,
					"numoutlets" : 1,
					"outlettype" : [ "signal" ],
					"patching_rect" : [ 818.736841559410095, 1016.153148770332336, 49.0, 22.0 ],
					"text" : "*~ 0.25"
				}

			}
, 			{
				"box" : 				{
					"id" : "obj-378",
					"maxclass" : "newobj",
					"numinlets" : 2,
					"numoutlets" : 1,
					"outlettype" : [ "signal" ],
					"patching_rect" : [ 818.736841559410095, 921.973575472831726, 29.5, 23.0 ],
					"text" : "*~"
				}

			}
, 			{
				"box" : 				{
					"id" : "obj-372",
					"maxclass" : "newobj",
					"numinlets" : 5,
					"numoutlets" : 4,
					"outlettype" : [ "signal", "signal", "", "" ],
					"patching_rect" : [ 740.736841559410095, 881.548043847084045, 92.0, 23.0 ],
					"text" : "adsr~ 1. 1. 1. 1."
				}

			}
, 			{
				"box" : 				{
					"id" : "obj-368",
					"maxclass" : "newobj",
					"numinlets" : 2,
					"numoutlets" : 1,
					"outlettype" : [ "signal" ],
					"patching_rect" : [ 886.481521368026733, 695.445840120315552, 29.5, 23.0 ],
					"text" : "+~"
				}

			}
, 			{
				"box" : 				{
					"id" : "obj-365",
					"maxclass" : "newobj",
					"numinlets" : 3,
					"numoutlets" : 1,
					"outlettype" : [ "signal" ],
					"patching_rect" : [ 934.078920125961304, 652.478169918060303, 40.0, 23.0 ],
					"text" : "tri~"
				}

			}
, 			{
				"box" : 				{
					"id" : "obj-364",
					"maxclass" : "newobj",
					"numinlets" : 2,
					"numoutlets" : 1,
					"outlettype" : [ "signal" ],
					"patching_rect" : [ 886.481521368026733, 652.478169918060303, 43.0, 23.0 ],
					"text" : "cycle~"
				}

			}
, 			{
				"box" : 				{
					"fontname" : "Arial",
					"fontsize" : 12.0,
					"id" : "obj-360",
					"maxclass" : "newobj",
					"numinlets" : 1,
					"numoutlets" : 1,
					"outlettype" : [ "" ],
					"patching_rect" : [ 740.736841559410095, 583.017305374145508, 34.0, 22.0 ],
					"text" : "mtof"
				}

			}
, 			{
				"box" : 				{
					"fontname" : "Arial",
					"fontsize" : 12.0,
					"id" : "obj-361",
					"maxclass" : "newobj",
					"numinlets" : 2,
					"numoutlets" : 1,
					"outlettype" : [ "float" ],
					"patching_rect" : [ 778.236841559410095, 583.017305374145508, 41.0, 22.0 ],
					"text" : "/ 127."
				}

			}
, 			{
				"box" : 				{
					"blackkeycolor" : [ 0.654901960784314, 0.411764705882353, 0.741176470588235, 1.0 ],
					"id" : "obj-357",
					"maxclass" : "kslider",
					"numinlets" : 2,
					"numoutlets" : 2,
					"outlettype" : [ "int", "int" ],
					"parameter_enable" : 0,
					"patching_rect" : [ 740.736841559410095, 423.50216007232666, 336.0, 53.0 ],
					"presentation" : 1,
					"presentation_rect" : [ 141.170441031455994, 380.081170082092285, 1008.0, 144.0 ],
					"selectioncolor" : [ 0.874509803921569, 0.333333333333333, 0.945098039215686, 1.0 ]
				}

			}
, 			{
				"box" : 				{
					"fontname" : "Arial",
					"fontsize" : 12.0,
					"id" : "obj-346",
					"maxclass" : "newobj",
					"numinlets" : 2,
					"numoutlets" : 1,
					"outlettype" : [ "float" ],
					"patching_rect" : [ 832.980945587158203, 121.251077651977539, 44.0, 22.0 ],
					"text" : "!/ 120."
				}

			}
, 			{
				"box" : 				{
					"fontname" : "Arial",
					"fontsize" : 12.0,
					"id" : "obj-348",
					"maxclass" : "newobj",
					"numinlets" : 2,
					"numoutlets" : 1,
					"outlettype" : [ "float" ],
					"patching_rect" : [ 818.980945587158203, 243.251077651977539, 32.5, 22.0 ],
					"text" : "* 1."
				}

			}
, 			{
				"box" : 				{
					"cantchange" : 1,
					"fontname" : "Arial",
					"fontsize" : 12.0,
					"format" : 6,
					"id" : "obj-6",
					"maxclass" : "flonum",
					"maximum" : 1000.0,
					"minimum" : 0.0,
					"numinlets" : 1,
					"numoutlets" : 2,
					"outlettype" : [ "", "bang" ],
					"parameter_enable" : 0,
					"patching_rect" : [ 832.980945587158203, 165.251077651977539, 50.0, 22.0 ]
				}

			}
, 			{
				"box" : 				{
					"fontname" : "Arial",
					"fontsize" : 12.0,
					"id" : "obj-350",
					"maxclass" : "newobj",
					"numinlets" : 4,
					"numoutlets" : 3,
					"outlettype" : [ "float", "float", "float" ],
					"patching_rect" : [ 740.980945587158203, 370.251077651977539, 107.0, 22.0 ],
					"text" : "makenote 60 60 1"
				}

			}
, 			{
				"box" : 				{
					"fontname" : "Arial",
					"fontsize" : 12.0,
					"id" : "obj-351",
					"maxclass" : "message",
					"numinlets" : 2,
					"numoutlets" : 1,
					"outlettype" : [ "" ],
					"patching_rect" : [ 641.980945587158203, 326.533131837844849, 33.0, 22.0 ],
					"text" : "next"
				}

			}
, 			{
				"box" : 				{
					"fontname" : "Arial",
					"fontsize" : 12.0,
					"id" : "obj-352",
					"maxclass" : "newobj",
					"numinlets" : 2,
					"numoutlets" : 1,
					"outlettype" : [ "bang" ],
					"patching_rect" : [ 641.980945587158203, 289.251077651977539, 53.0, 22.0 ],
					"text" : "delay 0."
				}

			}
, 			{
				"box" : 				{
					"fontname" : "Arial",
					"fontsize" : 12.0,
					"id" : "obj-353",
					"maxclass" : "newobj",
					"numinlets" : 1,
					"numoutlets" : 2,
					"outlettype" : [ "bang", "int" ],
					"patching_rect" : [ 641.980945587158203, 242.251077651977539, 29.5, 22.0 ],
					"text" : "t b i"
				}

			}
, 			{
				"box" : 				{
					"fontname" : "Arial",
					"fontsize" : 12.0,
					"id" : "obj-4",
					"maxclass" : "newobj",
					"numinlets" : 8,
					"numoutlets" : 8,
					"outlettype" : [ "int", "int", "int", "int", "int", "int", "int", "int" ],
					"patching_rect" : [ 641.980945587158203, 205.251077651977539, 177.5, 22.0 ],
					"save" : [ "#N", "detonate", "u928000148", ";", "#X", "setparam", 0, "Time", 0, 0, 999999, 0, 1000, 200, 0, ";", "#X", "setparam", 1, "Pitch", 0, 0, 127, 60, 12, 4, 0, ";", "#X", "setparam", 2, "Vel", 0, 0, 127, 64, 12, 4, 0, ";", "#X", "setparam", 3, "Dur", 0, 1, 99999, 200, 800, 200, 0, ";", "#X", "setparam", 4, "Chan", 0, 1, 16, 1, 8, 1, 0, ";", "#X", "setparam", 5, "Track", 0, 1, 32, 1, 8, 1, 0, ";", "#X", "setparam", 6, "X1", 0, 0, 999, 0, 80, 20, 0, ";", "#X", "setparam", 7, "X2", 0, 0, 999, 0, 80, 20, 0, ";", "#X", "restore", ";", "#X", 10000, 39, 100, -1, 1, 1, 0, 0, ";", "#X", 375, 39, 100, -1, 1, 1, 0, 0, ";", "#X", 1375, 41, 100, -1, 1, 1, 0, 0, ";", "#X", 250, 43, 100, -1, 1, 1, 0, 0, ";", "#X", 375, 43, 100, -1, 1, 1, 0, 0, ";", "#X", 1375, 46, 96, -1, 1, 1, 0, 0, ";", "#X", 250, 39, 100, -1, 1, 1, 0, 0, ";", "#X", 375, 39, 100, -1, 1, 1, 0, 0, ";", "#X", 1375, 39, 96, -1, 1, 1, 0, 0, ";", "#X", 250, 41, 96, -1, 1, 1, 0, 0, ";", "#X", 375, 41, 96, -1, 1, 1, 0, 0, ";", "#X", 1625, 39, 96, -1, 1, 1, 0, 0, ";", "#X", "stop", ";" ],
					"text" : "detonate"
				}

			}
, 			{
				"box" : 				{
					"fontname" : "Arial",
					"fontsize" : 12.0,
					"id" : "obj-354",
					"maxclass" : "message",
					"numinlets" : 2,
					"numoutlets" : 1,
					"outlettype" : [ "" ],
					"patching_rect" : [ 668.363924264907837, 86.123418092727661, 33.0, 22.0 ],
					"text" : "stop"
				}

			}
, 			{
				"box" : 				{
					"fontname" : "Arial",
					"fontsize" : 12.0,
					"id" : "obj-2",
					"maxclass" : "message",
					"numinlets" : 2,
					"numoutlets" : 1,
					"outlettype" : [ "" ],
					"patching_rect" : [ 620.789456248283386, 86.123418092727661, 34.0, 22.0 ],
					"text" : "start"
				}

			}
, 			{
				"box" : 				{
					"fontname" : "Arial",
					"fontsize" : 12.0,
					"id" : "obj-1",
					"maxclass" : "message",
					"numinlets" : 2,
					"numoutlets" : 1,
					"outlettype" : [ "" ],
					"patching_rect" : [ 571.363924264907837, 86.123418092727661, 35.0, 22.0 ],
					"text" : "read"
				}

			}
, 			{
				"box" : 				{
					"id" : "obj-296",
					"maxclass" : "newobj",
					"numinlets" : 2,
					"numoutlets" : 1,
					"outlettype" : [ "signal" ],
					"patching_rect" : [ 1830.726989269256592, 563.140684604644775, 29.5, 23.0 ],
					"text" : "*~"
				}

			}
, 			{
				"box" : 				{
					"id" : "obj-294",
					"maxclass" : "newobj",
					"numinlets" : 2,
					"numoutlets" : 1,
					"outlettype" : [ "signal" ],
					"patching_rect" : [ 1773.492847204208374, 563.140684604644775, 29.5, 23.0 ],
					"text" : "*~"
				}

			}
, 			{
				"box" : 				{
					"format" : 6,
					"id" : "obj-290",
					"maxclass" : "flonum",
					"numinlets" : 1,
					"numoutlets" : 2,
					"outlettype" : [ "", "bang" ],
					"parameter_enable" : 0,
					"patching_rect" : [ 1841.226989269256592, 523.111463069915771, 50.0, 23.0 ]
				}

			}
, 			{
				"box" : 				{
					"id" : "obj-288",
					"maxclass" : "number",
					"numinlets" : 1,
					"numoutlets" : 2,
					"outlettype" : [ "", "bang" ],
					"parameter_enable" : 0,
					"patching_rect" : [ 1783.882457494735718, 523.111463069915771, 50.0, 23.0 ]
				}

			}
, 			{
				"box" : 				{
					"id" : "obj-287",
					"maxclass" : "newobj",
					"numinlets" : 1,
					"numoutlets" : 1,
					"outlettype" : [ "" ],
					"patching_rect" : [ 1783.882457494735718, 487.611631393432617, 75.0, 23.0 ],
					"text" : "expr 100-$i1"
				}

			}
, 			{
				"box" : 				{
					"id" : "obj-280",
					"maxclass" : "newobj",
					"numinlets" : 2,
					"numoutlets" : 1,
					"outlettype" : [ "signal" ],
					"patching_rect" : [ 1759.807781934738159, 600.62848687171936, 29.5, 23.0 ],
					"text" : "+~"
				}

			}
, 			{
				"box" : 				{
					"autofit" : 1,
					"forceaspect" : 1,
					"id" : "obj-257",
					"maxclass" : "fpic",
					"numinlets" : 1,
					"numoutlets" : 1,
					"outlettype" : [ "jit_matrix" ],
					"patching_rect" : [ 91.913516640663147, 1202.091182166879889, 1313.564509153366089, 119.414955377578735 ],
					"pic" : "Wizard_new.png",
					"presentation" : 1,
					"presentation_rect" : [ 138.407287359237671, 527.838765675371405, 1018.316109538078308, 92.57419177618894 ]
				}

			}
, 			{
				"box" : 				{
					"fontname" : "Book Antiqua",
					"fontsize" : 15.0,
					"id" : "obj-29",
					"lastchannelcount" : 0,
					"maxclass" : "live.gain~",
					"modulationcolor" : [ 0.874509803921569, 0.333333333333333, 0.945098039215686, 1.0 ],
					"numinlets" : 2,
					"numoutlets" : 5,
					"outlettype" : [ "signal", "signal", "", "float", "list" ],
					"parameter_enable" : 1,
					"patching_rect" : [ 1765.242847204208374, 702.599342346191406, 58.0, 323.0 ],
					"presentation" : 1,
					"presentation_rect" : [ 138.407287359237671, 35.015638589859009, 86.0, 264.0 ],
					"saved_attribute_attributes" : 					{
						"valueof" : 						{
							"parameter_longname" : "live.gain~",
							"parameter_mmax" : 6.0,
							"parameter_mmin" : -70.0,
							"parameter_shortname" : "Potency",
							"parameter_type" : 0,
							"parameter_unitstyle" : 4
						}

					}
,
					"slidercolor" : [ 0.874509803921569, 0.333333333333333, 0.945098039215686, 1.0 ],
					"textcolor" : [ 1.0, 1.0, 1.0, 1.0 ],
					"trioncolor" : [ 1.0, 1.0, 1.0, 1.0 ],
					"varname" : "live.gain~"
				}

			}
, 			{
				"box" : 				{
					"bgcolor" : [ 0.407843137254902, 0.403921568627451, 0.403921568627451, 1.0 ],
					"id" : "obj-28",
					"maxclass" : "ezdac~",
					"numinlets" : 2,
					"numoutlets" : 0,
					"patching_rect" : [ 1765.242847204208374, 1103.870286703109741, 45.0, 45.0 ],
					"presentation" : 1,
					"presentation_rect" : [ 456.75, 327.5, 45.0, 45.0 ]
				}

			}
, 			{
				"box" : 				{
					"id" : "obj-26",
					"maxclass" : "message",
					"numinlets" : 2,
					"numoutlets" : 1,
					"outlettype" : [ "" ],
					"patching_rect" : [ 335.816053628921509, 117.49019980430603, 29.5, 23.0 ],
					"text" : "1"
				}

			}
, 			{
				"box" : 				{
					"id" : "obj-24",
					"maxclass" : "message",
					"numinlets" : 2,
					"numoutlets" : 1,
					"outlettype" : [ "" ],
					"patching_rect" : [ 298.108606934547424, 117.49019980430603, 35.0, 23.0 ],
					"text" : "open"
				}

			}
, 			{
				"box" : 				{
					"format" : 6,
					"id" : "obj-20",
					"maxclass" : "flonum",
					"maximum" : 1.0,
					"minimum" : 0.0,
					"numinlets" : 1,
					"numoutlets" : 2,
					"outlettype" : [ "", "bang" ],
					"parameter_enable" : 0,
					"patching_rect" : [ 2192.251526725090116, 187.687753081321716, 50.0, 23.0 ]
				}

			}
, 			{
				"box" : 				{
					"id" : "obj-18",
					"maxclass" : "newobj",
					"numinlets" : 2,
					"numoutlets" : 1,
					"outlettype" : [ "signal" ],
					"patching_rect" : [ 2181.751526725090116, 290.601924300193787, 29.5, 23.0 ],
					"text" : "*~"
				}

			}
, 			{
				"box" : 				{
					"id" : "obj-16",
					"maxclass" : "newobj",
					"numinlets" : 2,
					"numoutlets" : 2,
					"outlettype" : [ "signal", "bang" ],
					"patching_rect" : [ 298.108606934547424, 205.354948997497559, 54.894736766815186, 23.0 ],
					"saved_object_attributes" : 					{
						"basictuning" : 440,
						"followglobaltempo" : 0,
						"formantcorrection" : 0,
						"mode" : "basic",
						"originallength" : [ 39239.980000000003201, "ticks" ],
						"originaltempo" : 120.0,
						"pitchcorrection" : 0,
						"quality" : "basic",
						"timestretch" : [ 0 ]
					}
,
					"text" : "sfplay~"
				}

			}
, 			{
				"box" : 				{
					"id" : "obj-12",
					"linecount" : 2,
					"maxclass" : "newobj",
					"numinlets" : 1,
					"numoutlets" : 1,
					"outlettype" : [ "signal" ],
					"patching_rect" : [ 2090.783300042152405, 338.398555159568787, 62.0, 38.0 ],
					"text" : "tapout~ 5."
				}

			}
, 			{
				"box" : 				{
					"id" : "obj-11",
					"maxclass" : "newobj",
					"numinlets" : 1,
					"numoutlets" : 1,
					"outlettype" : [ "tapconnect" ],
					"patching_rect" : [ 2090.783300042152405, 275.552502274513245, 65.0, 23.0 ],
					"text" : "tapin~ 100"
				}

			}
, 			{
				"box" : 				{
					"id" : "obj-10",
					"maxclass" : "newobj",
					"numinlets" : 2,
					"numoutlets" : 1,
					"outlettype" : [ "signal" ],
					"patching_rect" : [ 2403.133947968482971, 275.552502274513245, 50.224025726318359, 23.0 ],
					"text" : "+~"
				}

			}
, 			{
				"box" : 				{
					"id" : "obj-9",
					"maxclass" : "newobj",
					"numinlets" : 2,
					"numoutlets" : 1,
					"outlettype" : [ "signal" ],
					"patching_rect" : [ 2403.078753113746643, 231.552502274513245, 50.279220581054688, 23.0 ],
					"text" : "*~"
				}

			}
, 			{
				"box" : 				{
					"id" : "obj-8",
					"maxclass" : "newobj",
					"numinlets" : 1,
					"numoutlets" : 1,
					"outlettype" : [ "signal" ],
					"patching_rect" : [ 2403.078753113746643, 187.687753081321716, 50.279220581054688, 23.0 ],
					"text" : "rand~"
				}

			}
, 			{
				"box" : 				{
					"angle" : 270.0,
					"bgcolor" : [ 0.0, 0.0, 0.0, 1.0 ],
					"id" : "obj-458",
					"maxclass" : "panel",
					"mode" : 0,
					"numinlets" : 1,
					"numoutlets" : 0,
					"patching_rect" : [ 688.157895684242249, 1369.210507392883301, 128.0, 128.0 ],
					"presentation" : 1,
					"presentation_rect" : [ 138.407287359237671, 25.313096284866333, 1018.316109538078308, 587.947631537914276 ],
					"proportion" : 0.5
				}

			}
, 			{
				"box" : 				{
					"angle" : 270.0,
					"grad1" : [ 0.376470588235294, 0.313725490196078, 0.094117647058824, 1.0 ],
					"grad2" : [ 0.443137254901961, 0.325490196078431, 0.137254901960784, 1.0 ],
					"id" : "obj-467",
					"maxclass" : "panel",
					"mode" : 1,
					"numinlets" : 1,
					"numoutlets" : 0,
					"patching_rect" : [ 536.657230973243713, 1365.354588508605957, 128.0, 128.0 ],
					"presentation" : 1,
					"presentation_rect" : [ 131.617293417453766, 25.313096284866333, 1030.425252377986908, 601.404251933097839 ],
					"proportion" : 0.5
				}

			}
 ],
		"lines" : [ 			{
				"patchline" : 				{
					"destination" : [ "obj-4", 0 ],
					"midpoints" : [ 580.863924264907837, 195.70490550994873, 651.480945587158203, 195.70490550994873 ],
					"source" : [ "obj-1", 0 ]
				}

			}
, 			{
				"patchline" : 				{
					"destination" : [ "obj-12", 0 ],
					"midpoints" : [ 2412.633947968482971, 332.714665532112122, 2100.283300042152405, 332.714665532112122 ],
					"source" : [ "obj-10", 0 ]
				}

			}
, 			{
				"patchline" : 				{
					"destination" : [ "obj-12", 0 ],
					"source" : [ "obj-11", 0 ]
				}

			}
, 			{
				"patchline" : 				{
					"destination" : [ "obj-18", 0 ],
					"midpoints" : [ 2100.283300042152405, 421.026353001594543, 2168.312896609306335, 421.026353001594543, 2168.312896609306335, 283.364016652107239, 2191.251526725090116, 283.364016652107239 ],
					"order" : 0,
					"source" : [ "obj-12", 0 ]
				}

			}
, 			{
				"patchline" : 				{
					"destination" : [ "obj-296", 0 ],
					"midpoints" : [ 2100.283300042152405, 553.397172451019287, 1840.226989269256592, 553.397172451019287 ],
					"order" : 1,
					"source" : [ "obj-12", 0 ]
				}

			}
, 			{
				"patchline" : 				{
					"destination" : [ "obj-346", 0 ],
					"source" : [ "obj-13", 0 ]
				}

			}
, 			{
				"patchline" : 				{
					"destination" : [ "obj-3", 0 ],
					"midpoints" : [ 1328.420087277889252, 396.519020080566406, 1520.728597939014435, 396.519020080566406 ],
					"source" : [ "obj-14", 0 ]
				}

			}
, 			{
				"patchline" : 				{
					"destination" : [ "obj-378", 1 ],
					"midpoints" : [ 833.948032736778259, 854.739571571350098 ],
					"source" : [ "obj-15", 0 ]
				}

			}
, 			{
				"patchline" : 				{
					"destination" : [ "obj-404", 0 ],
					"source" : [ "obj-16", 0 ]
				}

			}
, 			{
				"patchline" : 				{
					"destination" : [ "obj-361", 0 ],
					"source" : [ "obj-17", 0 ]
				}

			}
, 			{
				"patchline" : 				{
					"destination" : [ "obj-11", 0 ],
					"midpoints" : [ 2191.251526725090116, 327.51986038684845, 2216.3648442029953, 327.51986038684845, 2216.3648442029953, 259.987393498420715, 2100.283300042152405, 259.987393498420715 ],
					"source" : [ "obj-18", 0 ]
				}

			}
, 			{
				"patchline" : 				{
					"destination" : [ "obj-65", 1 ],
					"midpoints" : [ 923.813656449317932, 1064.526765942573547, 923.813656449317932, 1004.952298283576965, 858.236841559410095, 1004.952298283576965 ],
					"source" : [ "obj-188", 0 ]
				}

			}
, 			{
				"patchline" : 				{
					"destination" : [ "obj-4", 0 ],
					"midpoints" : [ 630.289456248283386, 155.251077651977539, 651.480945587158203, 155.251077651977539 ],
					"source" : [ "obj-2", 0 ]
				}

			}
, 			{
				"patchline" : 				{
					"destination" : [ "obj-18", 1 ],
					"source" : [ "obj-20", 0 ]
				}

			}
, 			{
				"patchline" : 				{
					"destination" : [ "obj-29", 1 ],
					"midpoints" : [ 1801.742847204208374, 685.669428110122681, 1813.742847204208374, 692.336094617843628 ],
					"source" : [ "obj-22", 1 ]
				}

			}
, 			{
				"patchline" : 				{
					"destination" : [ "obj-29", 0 ],
					"source" : [ "obj-22", 0 ]
				}

			}
, 			{
				"patchline" : 				{
					"destination" : [ "obj-16", 0 ],
					"source" : [ "obj-24", 0 ]
				}

			}
, 			{
				"patchline" : 				{
					"destination" : [ "obj-16", 0 ],
					"midpoints" : [ 345.316053628921509, 161.441213726997375, 307.608606934547424, 161.441213726997375 ],
					"source" : [ "obj-26", 0 ]
				}

			}
, 			{
				"patchline" : 				{
					"destination" : [ "obj-20", 0 ],
					"source" : [ "obj-272", 0 ]
				}

			}
, 			{
				"patchline" : 				{
					"destination" : [ "obj-287", 0 ],
					"order" : 1,
					"source" : [ "obj-275", 0 ]
				}

			}
, 			{
				"patchline" : 				{
					"destination" : [ "obj-290", 0 ],
					"midpoints" : [ 1865.252963066101074, 472.877692699432373, 1865.252963066101074, 514.436133861541748, 1849.668547630310059, 514.436133861541748, 1850.726989269256592, 520.929640293121338 ],
					"order" : 0,
					"source" : [ "obj-275", 0 ]
				}

			}
, 			{
				"patchline" : 				{
					"destination" : [ "obj-22", 1 ],
					"midpoints" : [ 1769.307781934738159, 638.651894330978394, 1801.742847204208374, 638.651894330978394 ],
					"order" : 0,
					"source" : [ "obj-280", 0 ]
				}

			}
, 			{
				"patchline" : 				{
					"destination" : [ "obj-22", 0 ],
					"midpoints" : [ 1769.307781934738159, 645.230841636657715, 1774.742847204208374, 645.230841636657715 ],
					"order" : 1,
					"source" : [ "obj-280", 0 ]
				}

			}
, 			{
				"patchline" : 				{
					"destination" : [ "obj-288", 0 ],
					"source" : [ "obj-287", 0 ]
				}

			}
, 			{
				"patchline" : 				{
					"destination" : [ "obj-294", 1 ],
					"source" : [ "obj-288", 0 ]
				}

			}
, 			{
				"patchline" : 				{
					"destination" : [ "obj-28", 1 ],
					"midpoints" : [ 1784.492847204208374, 1087.961069822311401, 1800.742847204208374, 1087.961069822311401 ],
					"source" : [ "obj-29", 1 ]
				}

			}
, 			{
				"patchline" : 				{
					"destination" : [ "obj-28", 0 ],
					"midpoints" : [ 1774.742847204208374, 1099.717052817344666, 1774.742847204208374, 1099.717052817344666 ],
					"source" : [ "obj-29", 0 ]
				}

			}
, 			{
				"patchline" : 				{
					"destination" : [ "obj-296", 1 ],
					"source" : [ "obj-290", 0 ]
				}

			}
, 			{
				"patchline" : 				{
					"destination" : [ "obj-280", 0 ],
					"midpoints" : [ 1768.851792335510254, 585.864704608917236 ],
					"source" : [ "obj-294", 0 ]
				}

			}
, 			{
				"patchline" : 				{
					"destination" : [ "obj-280", 1 ],
					"midpoints" : [ 1780.540103912353516, 585.864704608917236 ],
					"source" : [ "obj-296", 0 ]
				}

			}
, 			{
				"patchline" : 				{
					"destination" : [ "obj-7", 1 ],
					"midpoints" : [ 1520.728597939014435, 757.446803092956543, 1199.781747817993164, 757.446803092956543 ],
					"source" : [ "obj-3", 0 ]
				}

			}
, 			{
				"patchline" : 				{
					"destination" : [ "obj-24", 0 ],
					"midpoints" : [ 273.453907489776611, 107.493845820426941, 307.608606934547424, 107.493845820426941 ],
					"source" : [ "obj-310", 0 ]
				}

			}
, 			{
				"patchline" : 				{
					"destination" : [ "obj-360", 0 ],
					"source" : [ "obj-34", 0 ]
				}

			}
, 			{
				"patchline" : 				{
					"destination" : [ "obj-6", 0 ],
					"source" : [ "obj-346", 0 ]
				}

			}
, 			{
				"patchline" : 				{
					"destination" : [ "obj-352", 1 ],
					"midpoints" : [ 828.480945587158203, 278.68362832069397, 685.480945587158203, 278.68362832069397 ],
					"source" : [ "obj-348", 0 ]
				}

			}
, 			{
				"patchline" : 				{
					"destination" : [ "obj-357", 1 ],
					"midpoints" : [ 794.480945587158203, 412.530210971832275, 1067.236841559410095, 412.530210971832275 ],
					"source" : [ "obj-350", 1 ]
				}

			}
, 			{
				"patchline" : 				{
					"destination" : [ "obj-357", 0 ],
					"source" : [ "obj-350", 0 ]
				}

			}
, 			{
				"patchline" : 				{
					"destination" : [ "obj-4", 0 ],
					"midpoints" : [ 651.480945587158203, 358.974337577819824, 632.051244378089905, 358.974337577819824, 632.051244378089905, 194.871783256530762, 651.480945587158203, 194.871783256530762 ],
					"source" : [ "obj-351", 0 ]
				}

			}
, 			{
				"patchline" : 				{
					"destination" : [ "obj-351", 0 ],
					"source" : [ "obj-352", 0 ]
				}

			}
, 			{
				"patchline" : 				{
					"destination" : [ "obj-348", 0 ],
					"midpoints" : [ 807.036484718322754, 263.790011405944824, 807.036484718322754, 238.258096694946289, 828.480945587158203, 238.258096694946289 ],
					"source" : [ "obj-353", 1 ]
				}

			}
, 			{
				"patchline" : 				{
					"destination" : [ "obj-352", 0 ],
					"source" : [ "obj-353", 0 ]
				}

			}
, 			{
				"patchline" : 				{
					"destination" : [ "obj-4", 0 ],
					"midpoints" : [ 677.863924264907837, 154.251077651977539, 651.480945587158203, 154.251077651977539 ],
					"source" : [ "obj-354", 0 ]
				}

			}
, 			{
				"patchline" : 				{
					"destination" : [ "obj-17", 0 ],
					"source" : [ "obj-357", 1 ]
				}

			}
, 			{
				"patchline" : 				{
					"destination" : [ "obj-34", 0 ],
					"source" : [ "obj-357", 0 ]
				}

			}
, 			{
				"patchline" : 				{
					"destination" : [ "obj-364", 0 ],
					"midpoints" : [ 750.236841559410095, 636.170208215713501, 895.981521368026733, 636.170208215713501 ],
					"order" : 2,
					"source" : [ "obj-360", 0 ]
				}

			}
, 			{
				"patchline" : 				{
					"destination" : [ "obj-365", 0 ],
					"midpoints" : [ 750.236841559410095, 633.996044039726257, 943.578920125961304, 633.996044039726257 ],
					"order" : 1,
					"source" : [ "obj-360", 0 ]
				}

			}
, 			{
				"patchline" : 				{
					"destination" : [ "obj-494", 0 ],
					"midpoints" : [ 750.236841559410095, 633.996044039726257, 990.981521368026733, 633.996044039726257 ],
					"order" : 0,
					"source" : [ "obj-360", 0 ]
				}

			}
, 			{
				"patchline" : 				{
					"destination" : [ "obj-372", 0 ],
					"midpoints" : [ 787.736841559410095, 616.974767565727234, 720.954581737518311, 616.974767565727234, 720.954581737518311, 822.537703514099121, 750.236841559410095, 822.537703514099121 ],
					"source" : [ "obj-361", 0 ]
				}

			}
, 			{
				"patchline" : 				{
					"destination" : [ "obj-368", 0 ],
					"midpoints" : [ 895.981521368026733, 686.24440336227417, 895.981521368026733, 686.24440336227417 ],
					"source" : [ "obj-364", 0 ]
				}

			}
, 			{
				"patchline" : 				{
					"destination" : [ "obj-495", 1 ],
					"midpoints" : [ 943.578920125961304, 685.403337240219116, 1023.356521010398865, 685.403337240219116 ],
					"source" : [ "obj-365", 0 ]
				}

			}
, 			{
				"patchline" : 				{
					"destination" : [ "obj-365", 1 ],
					"midpoints" : [ 952.061133861541748, 642.201600313186646 ],
					"order" : 1,
					"source" : [ "obj-367", 0 ]
				}

			}
, 			{
				"patchline" : 				{
					"destination" : [ "obj-494", 1 ],
					"midpoints" : [ 1000.745343923568726, 643.51738977432251 ],
					"order" : 0,
					"source" : [ "obj-367", 0 ]
				}

			}
, 			{
				"patchline" : 				{
					"destination" : [ "obj-7", 0 ],
					"midpoints" : [ 895.981521368026733, 754.255313754081726, 1161.781747817993164, 754.255313754081726 ],
					"source" : [ "obj-368", 0 ]
				}

			}
, 			{
				"patchline" : 				{
					"destination" : [ "obj-14", 0 ],
					"source" : [ "obj-370", 0 ]
				}

			}
, 			{
				"patchline" : 				{
					"destination" : [ "obj-5", 0 ],
					"source" : [ "obj-371", 0 ]
				}

			}
, 			{
				"patchline" : 				{
					"destination" : [ "obj-378", 0 ],
					"midpoints" : [ 750.236841559410095, 910.271447896957397, 828.236841559410095, 910.271447896957397 ],
					"source" : [ "obj-372", 0 ]
				}

			}
, 			{
				"patchline" : 				{
					"destination" : [ "obj-65", 0 ],
					"source" : [ "obj-378", 0 ]
				}

			}
, 			{
				"patchline" : 				{
					"destination" : [ "obj-372", 1 ],
					"midpoints" : [ 859.983869671821594, 943.250171065330505, 859.983869671821594, 864.526767373085022, 768.486841559410095, 864.526767373085022 ],
					"source" : [ "obj-385", 0 ]
				}

			}
, 			{
				"patchline" : 				{
					"destination" : [ "obj-372", 2 ],
					"midpoints" : [ 861.047699451446533, 942.186341285705566, 861.047699451446533, 866.6544269323349, 786.736841559410095, 866.6544269323349 ],
					"source" : [ "obj-386", 0 ]
				}

			}
, 			{
				"patchline" : 				{
					"destination" : [ "obj-372", 3 ],
					"midpoints" : [ 861.047699451446533, 944.314000844955444, 861.047699451446533, 866.6544269323349, 804.986841559410095, 866.6544269323349 ],
					"source" : [ "obj-387", 0 ]
				}

			}
, 			{
				"patchline" : 				{
					"destination" : [ "obj-372", 4 ],
					"midpoints" : [ 863.175359010696411, 942.186341285705566, 863.175359010696411, 866.6544269323349, 823.236841559410095, 866.6544269323349 ],
					"source" : [ "obj-388", 0 ]
				}

			}
, 			{
				"patchline" : 				{
					"destination" : [ "obj-350", 2 ],
					"midpoints" : [ 719.409517015729648, 240.114799082279205, 790.818077027797699, 240.114799082279205, 790.818077027797699, 353.319685220718384, 809.147612253824832, 353.319685220718384 ],
					"source" : [ "obj-4", 3 ]
				}

			}
, 			{
				"patchline" : 				{
					"destination" : [ "obj-350", 1 ],
					"midpoints" : [ 696.766659872872538, 241.477581024169922, 761.823716402053833, 241.477581024169922, 761.823716402053833, 352.00389575958252, 779.814278920491574, 352.00389575958252 ],
					"source" : [ "obj-4", 2 ]
				}

			}
, 			{
				"patchline" : 				{
					"destination" : [ "obj-350", 0 ],
					"midpoints" : [ 674.123802730015314, 239.738859236240387, 730.244769334793091, 239.738859236240387, 749.793641328811646, 238.846002101898193, 749.793641328811646, 350.688106298446655, 750.480945587158203, 350.688106298446655 ],
					"source" : [ "obj-4", 1 ]
				}

			}
, 			{
				"patchline" : 				{
					"destination" : [ "obj-353", 0 ],
					"source" : [ "obj-4", 0 ]
				}

			}
, 			{
				"patchline" : 				{
					"destination" : [ "obj-11", 0 ],
					"midpoints" : [ 1724.440578162670135, 317.65525758266449, 2080.581550002098083, 317.65525758266449, 2080.581550002098083, 259.641994714736938, 2100.283300042152405, 259.641994714736938 ],
					"order" : 0,
					"source" : [ "obj-403", 0 ]
				}

			}
, 			{
				"patchline" : 				{
					"destination" : [ "obj-294", 0 ],
					"midpoints" : [ 1724.440578162670135, 317.65525758266449, 2011.39655590057373, 317.65525758266449, 2011.39655590057373, 553.82546865940094, 1782.992847204208374, 553.82546865940094 ],
					"order" : 1,
					"source" : [ "obj-403", 0 ]
				}

			}
, 			{
				"patchline" : 				{
					"destination" : [ "obj-26", 0 ],
					"midpoints" : [ 373.539457678794861, 106.178056359291077, 345.316053628921509, 106.178056359291077 ],
					"source" : [ "obj-405", 0 ]
				}

			}
, 			{
				"patchline" : 				{
					"destination" : [ "obj-403", 0 ],
					"midpoints" : [ 1677.596046388149261, 242.180758833885193, 1724.292311370372772, 242.180758833885193, 1717.773911654949188, 261.917600750923157 ],
					"source" : [ "obj-407", 0 ]
				}

			}
, 			{
				"patchline" : 				{
					"destination" : [ "obj-403", 0 ],
					"midpoints" : [ 1770.382457494735718, 244.812337756156921, 1724.440578162670135, 244.812337756156921 ],
					"source" : [ "obj-409", 0 ]
				}

			}
, 			{
				"patchline" : 				{
					"destination" : [ "obj-9", 1 ],
					"midpoints" : [ 2482.813240051269531, 228.293556094169617, 2443.857973694801331, 228.293556094169617 ],
					"source" : [ "obj-410", 0 ]
				}

			}
, 			{
				"patchline" : 				{
					"destination" : [ "obj-8", 0 ],
					"source" : [ "obj-412", 0 ]
				}

			}
, 			{
				"patchline" : 				{
					"destination" : [ "obj-10", 1 ],
					"midpoints" : [ 2324.387264490127563, 268.719087719917297, 2443.857973694801331, 268.719087719917297 ],
					"order" : 0,
					"source" : [ "obj-413", 0 ]
				}

			}
, 			{
				"patchline" : 				{
					"destination" : [ "obj-9", 1 ],
					"midpoints" : [ 2324.387264490127563, 226.165896534919739, 2443.857973694801331, 226.165896534919739 ],
					"order" : 1,
					"source" : [ "obj-413", 0 ]
				}

			}
, 			{
				"patchline" : 				{
					"destination" : [ "obj-1", 0 ],
					"source" : [ "obj-436", 0 ]
				}

			}
, 			{
				"patchline" : 				{
					"destination" : [ "obj-2", 0 ],
					"source" : [ "obj-437", 0 ]
				}

			}
, 			{
				"patchline" : 				{
					"destination" : [ "obj-354", 0 ],
					"source" : [ "obj-438", 0 ]
				}

			}
, 			{
				"patchline" : 				{
					"destination" : [ "obj-407", 0 ],
					"midpoints" : [ 1698.096046388149261, 176.39128577709198, 1677.596046388149261, 176.39128577709198 ],
					"source" : [ "obj-453", 0 ]
				}

			}
, 			{
				"patchline" : 				{
					"destination" : [ "obj-409", 0 ],
					"midpoints" : [ 1810.382457494735718, 177.707075238227844, 1770.382457494735718, 177.707075238227844 ],
					"source" : [ "obj-455", 0 ]
				}

			}
, 			{
				"patchline" : 				{
					"destination" : [ "obj-491", 1 ],
					"midpoints" : [ 1232.737409710884094, 673.945004343986511, 1034.407588481903076, 673.945004343986511, 1034.407588481903076, 681.236670732498169, 954.078920125961304, 681.236670732498169 ],
					"source" : [ "obj-490", 0 ]
				}

			}
, 			{
				"patchline" : 				{
					"destination" : [ "obj-368", 1 ],
					"midpoints" : [ 943.578920125961304, 723.945002436637878, 923.990926027297974, 723.945002436637878, 923.990926027297974, 687.48667049407959, 906.481521368026733, 687.48667049407959 ],
					"source" : [ "obj-491", 0 ]
				}

			}
, 			{
				"patchline" : 				{
					"destination" : [ "obj-495", 0 ],
					"midpoints" : [ 1052.817201435565948, 689.570003747940063, 1028.157588720321655, 689.570003747940063, 1028.157588720321655, 689.570003747940063, 1000.356521010398865, 689.570003747940063 ],
					"source" : [ "obj-493", 0 ]
				}

			}
, 			{
				"patchline" : 				{
					"destination" : [ "obj-495", 2 ],
					"midpoints" : [ 990.981521368026733, 686.445003867149353, 1046.356521010398865, 686.445003867149353 ],
					"source" : [ "obj-494", 0 ]
				}

			}
, 			{
				"patchline" : 				{
					"destination" : [ "obj-491", 0 ],
					"midpoints" : [ 1000.356521010398865, 724.986669063568115, 973.990924119949341, 724.986669063568115, 973.990924119949341, 686.445003867149353, 943.578920125961304, 686.445003867149353 ],
					"source" : [ "obj-495", 0 ]
				}

			}
, 			{
				"patchline" : 				{
					"destination" : [ "obj-3", 0 ],
					"midpoints" : [ 1328.420087277889252, 230.851062178611755, 1307.446799159049988, 230.851062178611755, 1307.446799159049988, 396.808507800102234, 1520.728597939014435, 396.808507800102234 ],
					"source" : [ "obj-5", 0 ]
				}

			}
, 			{
				"patchline" : 				{
					"destination" : [ "obj-3", 0 ],
					"source" : [ "obj-503", 0 ]
				}

			}
, 			{
				"patchline" : 				{
					"destination" : [ "obj-348", 1 ],
					"source" : [ "obj-6", 0 ]
				}

			}
, 			{
				"patchline" : 				{
					"destination" : [ "obj-402", 0 ],
					"source" : [ "obj-65", 0 ]
				}

			}
, 			{
				"patchline" : 				{
					"destination" : [ "obj-15", 0 ],
					"midpoints" : [ 1161.781747817993164, 812.765951633453369, 845.236841559410095, 812.765951633453369 ],
					"source" : [ "obj-7", 0 ]
				}

			}
, 			{
				"patchline" : 				{
					"destination" : [ "obj-9", 0 ],
					"source" : [ "obj-8", 0 ]
				}

			}
, 			{
				"patchline" : 				{
					"destination" : [ "obj-10", 0 ],
					"source" : [ "obj-9", 0 ]
				}

			}
 ],
		"parameters" : 		{
			"obj-188" : [ "COMMAND THY VOLUME", "COMMAND THY VOLUME", 0 ],
			"obj-272" : [ "live.dial[3]", "FORCE KNOB", 0 ],
			"obj-275" : [ "live.dial[6]", "Magic Mixer", 0 ],
			"obj-29" : [ "live.gain~", "Potency", 0 ],
			"obj-310" : [ "live.button", "Open Sesame!", 0 ],
			"obj-367" : [ "duty cycle", "Duty cycle", 0 ],
			"obj-370" : [ "magic resonance", "Spell power", 0 ],
			"obj-371" : [ "magicutoff", "Magicutoff", 0 ],
			"obj-385" : [ "live.slider[1]", "Attack!", 0 ],
			"obj-386" : [ "live.slider[2]", "Decay!", 0 ],
			"obj-387" : [ "live.slider[3]", "Hold!", 0 ],
			"obj-388" : [ "live.slider[4]", "Retreat!", 0 ],
			"obj-405" : [ "live.button[1]", "Play!", 0 ],
			"obj-410" : [ "live.dial[2]", "INTO THE ABYSS", 0 ],
			"obj-412" : [ "live.dial[7]", "Rate", 0 ],
			"obj-413" : [ "live.dial[5]", "Delay Time", 0 ],
			"obj-436" : [ "live.button[2]", "live.button[2]", 0 ],
			"obj-437" : [ "live.button[3]", "live.button[2]", 0 ],
			"obj-438" : [ "live.button[4]", "live.button[2]", 0 ],
			"obj-453" : [ "live.button[5]", "live.button[5]", 0 ],
			"obj-455" : [ "live.button[6]", "live.button[6]", 0 ],
			"obj-490" : [ "duty cycle[1]", "Gain", 0 ],
			"obj-493" : [ "live.menu", "live.menu", 0 ],
			"parameterbanks" : 			{

			}
,
			"inherited_shortname" : 1
		}
,
		"dependency_cache" : [ 			{
				"name" : "Wizard_new.png",
				"bootpath" : "C74:/packages/Max for Live/patchers/Max Instrument/Vocalese",
				"type" : "PNG",
				"implicit" : 1
			}
, 			{
				"name" : "cooltext381258447207454.png",
				"bootpath" : "~/Music/Samples/Ident sounds/Chorus Patch/media",
				"patcherrelativepath" : "../media",
				"type" : "PNG",
				"implicit" : 1
			}
 ],
		"autosave" : 0,
		"color" : [ 0.874509803921569, 0.333333333333333, 0.945098039215686, 1.0 ],
		"textcolor" : [ 0.549019607843137, 0.172549019607843, 0.701960784313725, 1.0 ],
		"clearcolor" : [ 0.407843137254902, 0.4, 0.4, 0.0 ],
		"bgcolor" : [ 1.0, 1.0, 1.0, 0.0 ],
		"editing_bgcolor" : [ 0.0, 0.0, 0.0, 1.0 ]
	}

}
